<?xml version="1.0" encoding="utf-8"?>
<!-- Generator: Adobe Illustrator 16.0.0, SVG Export Plug-In . SVG Version: 6.00 Build 0)  -->
<!DOCTYPE svg PUBLIC "-//W3C//DTD SVG 1.1//EN" "http://www.w3.org/Graphics/SVG/1.1/DTD/svg11.dtd">
<svg version="1.1" id="Ebene_1" xmlns="http://www.w3.org/2000/svg" xmlns:xlink="http://www.w3.org/1999/xlink" x="0px" y="0px"
	 width="234.035px" height="272px" viewBox="0 0 234.035 272" enable-background="new 0 0 234.035 272" xml:space="preserve">
<polygon fill="#1C1C1C" points="206.859,253.977 200.035,253 190.484,244.711 175.035,242 167.035,236 163.035,232 159.016,228.066 
	147.32,207.938 145.035,190 153.109,181.074 156.121,171.656 167.035,167 172.168,157.996 173.668,152.402 176.039,143.297 
	172.125,132.434 174.156,122.754 175.379,101.68 171.785,90 171.785,66 158.91,57 147.973,40 134.004,29 122.02,23 105.027,8 
	96.031,0 90.455,10.984 64.034,14 37.601,33.91 28.937,39.121 19.09,46.637 8.035,91 1.543,109.039 0.199,115.52 3.035,127 
	1.035,130 0,141.957 8.902,141.418 3.957,151.758 13.332,153.105 11.035,161 12.035,167 14.933,173.879 30.926,165.332 
	20.816,176.918 14.933,173.879 24.062,182.586 41.351,212.961 33.785,243 33.785,250 17.91,257 9.973,262 0.004,264 92.52,272 
	153.027,266 203.031,268 234.033,272 "/>
<g>
	<polygon fill="#D6D6D6" points="139.051,203 136.051,207 137.516,219.273 147.336,207.938 141.066,208.133 	"/>
	<polygon fill="#D6D6D6" points="172.141,132.434 174.172,122.754 165.691,128.918 164.523,128.73 156.992,134.117 151.051,139 
		127.051,141 117.051,147 111.137,151.617 101.023,149.191 101.051,138 93.051,151 82.051,145 82.917,158.211 71.051,155 
		62.051,167 57.628,148.355 42.051,142 29.145,134.898 28.309,132.086 23.02,126.809 20.68,116.676 13.051,115 9.719,124.27 
		3.051,127 1.051,130 0.016,141.957 8.917,141.418 3.973,151.758 13.348,153.105 11.051,161 12.051,167 14.949,173.879 
		30.941,165.332 20.832,176.918 24.078,182.586 43.051,195 47.051,198 51.051,204 60.051,208 71.051,214 80.051,206 93.051,220 
		108.051,220 112.422,219.781 106.051,229 93.414,231.598 93.051,220 72.051,234 71.051,214 57.035,216.633 49.121,231.586 
		37.051,246 34.051,250 55.051,262 0.051,264 92.551,272 153.051,266 153.191,258.93 137.051,237 149.48,238.68 137.516,219.273 
		123.41,224.996 127.051,213 120.184,214.301 129.051,203 139.051,203 144.051,193 147.336,207.938 145.051,190 153.125,181.074 
		156.137,171.656 167.051,167 172.184,157.996 173.684,152.402 176.055,143.297 	"/>
</g>
<g>
	<polygon fill="#FFFFFF" points="138.035,84 137.035,68 118.074,61.938 103.703,70.004 87.035,75 71.547,58.66 52,53.797 33.035,61 
		36.035,82 34.035,95 34.355,106.484 39.523,104.094 57.703,109.004 70.555,110.645 76.765,118.902 94.035,117.173 107.035,114.346 
		132.035,114.346 149.918,112.907 	"/>
	<polygon fill="#FFFFFF" points="200.035,253 190.484,244.711 175.035,242 167.035,236 157.477,239.754 149.465,238.68 
		155.953,251.293 154.812,254.867 153.176,258.93 153.035,266 203.035,268 207.875,256.848 	"/>
</g>
<g>
	<polygon fill="#040404" points="214.035,266 203.035,268 234.035,272 	"/>
	<polygon fill="#030303" points="1.543,109.039 0.199,115.52 2.402,116.93 	"/>
	<polygon fill="#1E1E1E" points="107.77,180.242 104.477,186.648 113.555,192.555 	"/>
	<polygon fill="#222222" points="71.035,214 57.019,216.633 72.035,234 	"/>
	<polygon fill="#040404" points="207.875,256.848 214.035,266 234.035,272 	"/>
	<polygon fill="#424242" points="20.664,116.676 33.035,119 34.355,106.484 	"/>
	<polygon fill="#030303" points="2.402,116.93 3.035,127 4.691,117.066 	"/>
	<polygon fill="#3F3F3F" points="1.035,130 0,141.957 8.902,141.418 	"/>
	<polygon fill="#030303" points="2.402,116.93 0.199,115.52 3.035,127 	"/>
	<polygon fill="#030303" points="1.543,109.039 2.402,116.93 4.691,117.066 	"/>
	<polygon fill="#030303" points="9.375,99.684 1.543,109.039 13.035,115 	"/>
	<polygon fill="#393939" points="57.019,216.633 49.105,231.586 72.035,234 	"/>
	<polygon fill="#030303" points="1.543,109.039 4.691,117.066 13.035,115 	"/>
	<polygon fill="#636363" points="4.691,117.066 9.703,124.27 13.035,115 	"/>
	<polygon fill="#030303" points="8.035,91 1.543,109.039 9.375,99.684 	"/>
	<polygon fill="#040404" points="4.691,117.066 3.035,127 9.703,124.27 	"/>
	<polygon fill="#212121" points="19.09,46.637 8.035,91 20.035,64 	"/>
	<polygon fill="#888888" points="51.035,196 60.035,208 64.035,191 	"/>
	<polygon fill="#F4F4F4" points="10.406,140.832 8.902,141.418 13.332,153.105 	"/>
	<polygon fill="#CCCCCC" points="15.887,127.898 15.664,136.855 18.035,132 	"/>
	<polygon fill="#E1E1E1" points="8.902,141.418 3.957,151.758 13.332,153.105 	"/>
	<polygon fill="#4E4E4E" points="3.035,127 1.035,130 12.652,138.727 	"/>
	<polygon fill="#ECECEC" points="8.902,141.418 10.406,140.832 12.652,138.727 	"/>
	<polygon fill="#3C3C3C" points="9.703,124.27 3.035,127 12.652,138.727 	"/>
	<polygon fill="#424242" points="1.035,130 8.902,141.418 12.652,138.727 	"/>
	<polygon fill="#BCBCBC" points="13.035,115 9.703,124.27 15.887,127.898 	"/>
	<polygon fill="#858585" points="12.652,138.727 15.664,136.855 15.887,127.898 	"/>
	<polygon fill="#ABABAB" points="9.703,124.27 12.652,138.727 15.887,127.898 	"/>
	<polygon fill="#3F3F3F" points="33.035,119 28.293,132.086 43.902,122.262 	"/>
	<polygon fill="#EBEBEB" points="12.652,138.727 10.406,140.832 17.035,151 	"/>
	<polygon fill="#C9C9C9" points="10.406,140.832 13.332,153.105 17.035,151 	"/>
	<polygon fill="#141414" points="20.726,90.195 9.375,99.684 23.465,92.594 	"/>
	<polygon fill="#EFEFEF" points="11.035,161 12.035,167 19.094,157.605 	"/>
	<polygon fill="#0E0E0E" points="18.066,111.09 13.035,115 20.664,116.676 	"/>
	<polygon fill="#0D0D0D" points="20.035,74 8.035,91 20.726,90.195 	"/>
	<polygon fill="#060606" points="9.375,99.684 13.035,115 18.066,111.09 	"/>
	<polygon fill="#0D0D0D" points="20.035,64 8.035,91 20.035,74 	"/>
	<polygon fill="#A0A0A0" points="29.129,134.898 15.664,136.855 29.801,137.914 	"/>
	<polygon fill="#CCCCCC" points="15.664,136.855 22.426,148.422 29.801,137.914 	"/>
	<polygon fill="#B2B2B2" points="13.332,153.105 11.035,161 19.094,157.605 	"/>
	<polygon fill="#F0F0F0" points="17.035,151 13.332,153.105 19.094,157.605 	"/>
	<polygon fill="#070707" points="8.035,91 9.375,99.684 20.726,90.195 	"/>
	<polygon fill="#141414" points="9.375,99.684 18.066,111.09 23.465,92.594 	"/>
	<polygon fill="#141414" points="13.035,115 15.887,127.898 20.664,116.676 	"/>
	<polygon fill="#030303" points="20.664,116.676 15.887,127.898 23.004,126.809 	"/>
	<polygon fill="#EFEFEF" points="15.887,127.898 18.035,132 23.004,126.809 	"/>
	<polygon fill="#1D1D1D" points="18.066,111.09 20.664,116.676 34.355,106.484 	"/>
	<polygon fill="#C3C3C3" points="15.664,136.855 12.652,138.727 22.426,148.422 	"/>
	<polygon fill="#535353" points="12.652,138.727 17.035,151 22.426,148.422 	"/>
	<polygon fill="#E6E6E6" points="17.035,151 19.094,157.605 22.426,148.422 	"/>
	<polygon fill="#F8F8F8" points="19.094,157.605 12.035,167 30.926,165.332 	"/>
	<polygon fill="#242424" points="20.664,116.676 25.035,121 33.035,119 	"/>
	<polygon fill="#030303" points="20.816,176.918 14.933,173.879 24.062,182.586 	"/>
	<polygon fill="#191919" points="20.035,64 20.035,74 33.035,61 	"/>
	<polygon fill="#282828" points="31.547,38.578 28.937,39.121 33.035,61 	"/>
	<polygon fill="#181818" points="20.664,116.676 23.004,126.809 25.035,121 	"/>
	<polygon fill="#353535" points="23.004,126.809 18.035,132 28.293,132.086 	"/>
	<polygon fill="#3E3E3E" points="25.035,121 23.004,126.809 28.293,132.086 	"/>
	<polygon fill="#A8A8A8" points="28.293,132.086 18.035,132 29.129,134.898 	"/>
	<polygon fill="#A7A7A7" points="18.035,132 15.664,136.855 29.129,134.898 	"/>
	<polygon fill="#F3F3F3" points="12.035,167 14.933,173.879 30.926,165.332 	"/>
	<polygon fill="#191919" points="43.035,112 52.035,118 57.703,109.004 	"/>
	<polygon fill="#030303" points="34.035,243 34.035,250 37.035,246 	"/>
	<polygon fill="#666666" points="34.035,95 23.465,92.594 34.355,106.484 	"/>
	<polygon fill="#151515" points="19.09,46.637 20.035,64 33.035,61 	"/>
	<polygon fill="#262626" points="28.937,39.121 19.09,46.637 33.035,61 	"/>
	<polygon fill="#6C6C6C" points="51.035,196 47.035,198 51.035,204 	"/>
	<polygon fill="#5E5E5E" points="33.035,61 20.035,74 36.035,82 	"/>
	<polygon fill="#717171" points="25.035,121 28.293,132.086 33.035,119 	"/>
	<polygon fill="#929292" points="50.035,248 34.035,250 55.035,262 	"/>
	<polygon fill="#6C6C6C" points="41.476,212.961 49.105,231.586 49.191,212.125 	"/>
	<polygon fill="#E2E2E2" points="39.523,104.094 34.355,106.484 43.035,112 	"/>
	<polygon fill="#292929" points="20.816,176.918 24.062,182.586 34.035,173 	"/>
	<polygon fill="#6A6A6A" points="30.926,165.332 20.816,176.918 34.035,173 	"/>
	<polygon fill="#858585" points="23.465,92.594 34.035,95 36.035,82 	"/>
	<polygon fill="#202020" points="23.465,92.594 18.066,111.09 34.355,106.484 	"/>
	<polygon fill="#202020" points="20.726,90.195 23.465,92.594 36.035,82 	"/>
	<polygon fill="#363636" points="34.035,250 18.035,257 55.035,262 	"/>
	<polygon fill="#272727" points="20.035,74 20.726,90.195 36.035,82 	"/>
	<polygon fill="#B9B9B9" points="29.801,137.914 22.426,148.422 37.39,153.367 	"/>
	<polygon fill="#3D3D3D" points="28.937,39.121 31.547,38.578 37.601,33.91 	"/>
	<polygon fill="#8A8A8A" points="22.426,148.422 19.094,157.605 37.39,153.367 	"/>
	<polygon fill="#878787" points="19.094,157.605 30.926,165.332 37.39,153.367 	"/>
	<polygon fill="#222222" points="24.062,182.586 41.476,212.961 43.035,195 	"/>
	<polygon fill="#D3D3D3" points="37.39,153.367 30.926,165.332 39.562,155.32 	"/>
	<polygon fill="#4E4E4E" points="34.355,106.484 33.035,119 43.035,112 	"/>
	<polygon fill="#F2F2F2" points="37.39,153.367 39.562,155.32 42.035,142 	"/>
	<polygon fill="#C2C2C2" points="58.035,175 51.035,185 64.035,191 	"/>
	<polygon fill="#E0E0E0" points="39.562,155.32 30.926,165.332 43.555,158.922 	"/>
	<polygon fill="#696969" points="34.035,173 24.062,182.586 43.035,195 	"/>
	<polygon fill="#D8D8D8" points="29.129,134.898 29.801,137.914 42.035,142 	"/>
	<polygon fill="#9A9A9A" points="29.801,137.914 37.39,153.367 42.035,142 	"/>
	<polygon fill="#7F7F7F" points="46.035,193 43.035,195 47.035,198 	"/>
	<polygon fill="#D7D7D7" points="43.555,158.922 44.121,165.477 44.902,165.977 	"/>
	<polygon fill="#434343" points="43.035,195 41.476,212.961 47.035,198 	"/>
	<polygon fill="#3D3D3D" points="28.293,132.086 29.129,134.898 43.902,122.262 	"/>
	<polygon fill="#D1D1D1" points="51.035,185 51.035,196 64.035,191 	"/>
	<polygon fill="#191919" points="43.035,112 33.035,119 43.902,122.262 	"/>
	<polygon fill="#9C9C9C" points="34.035,173 43.035,195 46.035,193 	"/>
	<polygon fill="#D2D2D2" points="44.121,165.477 34.035,173 44.902,165.977 	"/>
	<polygon fill="#D7D7D7" points="43.555,158.922 30.926,165.332 44.121,165.477 	"/>
	<polygon fill="#C3C3C3" points="30.926,165.332 34.035,173 44.121,165.477 	"/>
	<polygon fill="#0E0E0E" points="43.902,122.262 29.129,134.898 47.121,125.609 	"/>
	<polygon fill="#E4E4E4" points="18.035,257 10.035,262 55.035,262 	"/>
	<polygon fill="#393939" points="29.129,134.898 42.035,142 47.121,125.609 	"/>
	<polygon fill="#0B0B0B" points="43.902,122.262 47.121,125.609 52.035,118 	"/>
	<polygon fill="#494949" points="41.476,212.961 34.035,243 49.105,231.586 	"/>
	<polygon fill="#1F1F1F" points="34.035,243 37.035,246 49.105,231.586 	"/>
	<polygon fill="#464646" points="52.035,118 47.121,125.609 62.012,131.438 	"/>
	<polygon fill="#888888" points="49.105,231.586 37.035,246 50.035,248 	"/>
	<polygon fill="#3A3A3A" points="37.035,246 34.035,250 50.035,248 	"/>
	<polygon fill="#0B0B0B" points="43.035,112 43.902,122.262 52.035,118 	"/>
	<polygon fill="#9C9C9C" points="57.613,148.355 62.035,167 71.035,155 	"/>
	<polygon fill="#DBDBDB" points="44.902,165.977 51.035,185 58.035,175 	"/>
	<polygon fill="#2D2D2D" points="31.547,38.578 33.035,61 52,53.797 	"/>
	<polygon fill="#CCCCCC" points="44.902,165.977 34.035,173 51.035,185 	"/>
	<polygon fill="#BFBFBF" points="34.035,173 46.035,193 51.035,185 	"/>
	<polygon fill="#A6A6A6" points="51.035,185 46.035,193 51.035,196 	"/>
	<polygon fill="#8B8B8B" points="46.035,193 47.035,198 51.035,196 	"/>
	<polygon fill="#363636" points="47.035,198 41.476,212.961 51.035,204 	"/>
	<polygon fill="#232323" points="41.476,212.961 49.191,212.125 51.035,204 	"/>
	<polygon fill="#464646" points="37.601,33.91 31.547,38.578 52,53.797 	"/>
	<polygon fill="#545454" points="41.648,32.867 37.601,33.91 52,53.797 	"/>
	<polygon fill="#E0E0E0" points="39.562,155.32 43.555,158.922 57.613,148.355 	"/>
	<polygon fill="#4B4B4B" points="93.035,220 106.035,229 108.035,220 	"/>
	<polygon fill="#7C7C7C" points="91.035,125 85.035,127 92.035,129 	"/>
	<polygon fill="#FBFBFB" points="10.035,262 0.035,264 55.035,262 	"/>
	<polygon fill="#DFDFDF" points="64.035,191 83.035,196 83.312,181.461 	"/>
	<polygon fill="#8A8A8A" points="87.035,241 75.035,257 87.035,250 	"/>
	<polygon fill="#393939" points="49.191,212.125 49.105,231.586 57.019,216.633 	"/>
	<polygon fill="#626262" points="51.035,196 51.035,204 60.035,208 	"/>
	<polygon fill="#2E2E2E" points="41.648,32.867 57.515,30.062 64.035,14 	"/>
	<polygon fill="#2D2D2D" points="49.191,212.125 57.019,216.633 60.035,208 	"/>
	<polygon fill="#989898" points="42.035,142 39.562,155.32 57.613,148.355 	"/>
	<polygon fill="#404040" points="57.515,30.062 41.648,32.867 60.293,32.203 	"/>
	<polygon fill="#F6F6F6" points="39.523,104.094 43.035,112 57.703,109.004 	"/>
	<polygon fill="#5B5B5B" points="51.035,204 49.191,212.125 60.035,208 	"/>
	<polygon fill="#343434" points="37.601,33.91 41.648,32.867 64.035,14 	"/>
	<polygon fill="#737373" points="49.105,231.586 64.035,250 72.035,234 	"/>
	<polygon fill="#E7E7E7" points="97.035,199 105.035,204 107.293,200.582 	"/>
	<polygon fill="#3B3B3B" points="41.648,32.867 52,53.797 60.293,32.203 	"/>
	<polygon fill="#353535" points="57.703,109.004 52.035,118 60.035,114 	"/>
	<polygon fill="#BEBEBE" points="57.613,148.355 43.555,158.922 62.035,167 	"/>
	<polygon fill="#363636" points="79.035,134 69.035,141 80.035,141 	"/>
	<polygon fill="#D8D8D8" points="43.555,158.922 44.902,165.977 62.035,167 	"/>
	<polygon fill="#494949" points="42.035,142 57.613,148.355 62.012,131.438 	"/>
	<polygon fill="#2F2F2F" points="47.121,125.609 42.035,142 62.012,131.438 	"/>
	<polygon fill="#E1E1E1" points="44.902,165.977 58.035,175 62.035,167 	"/>
	<polygon fill="#BFBFBF" points="50.035,248 55.035,262 64.035,250 	"/>
	<polygon fill="#A0A0A0" points="49.105,231.586 50.035,248 64.035,250 	"/>
	<polygon fill="#282828" points="70.39,124.145 69.035,141 79.035,134 	"/>
	<polygon fill="#464646" points="64.035,14 57.515,30.062 65.898,25.051 	"/>
	<polygon fill="#373737" points="57.515,30.062 60.293,32.203 65.898,25.051 	"/>
	<polygon fill="#242424" points="60.035,114 52.035,118 66.035,121 	"/>
	<polygon fill="#3B3B3B" points="52.035,118 62.012,131.438 66.035,121 	"/>
	<polygon fill="#444444" points="62.012,131.438 57.613,148.355 69.035,141 	"/>
	<polygon fill="#363636" points="62.012,131.438 69.035,141 70.39,124.145 	"/>
	<polygon fill="#3C3C3C" points="69.035,141 73.035,147 80.035,141 	"/>
	<polygon fill="#5E5E5E" points="60.035,208 57.019,216.633 71.035,214 	"/>
	<polygon fill="#434343" points="66.035,121 62.012,131.438 70.39,124.145 	"/>
	<polygon fill="#131313" points="60.035,114 66.035,121 70.555,110.645 	"/>
	<polygon fill="#E7E7E7" points="57.703,109.004 60.035,114 70.555,110.645 	"/>
	<polygon fill="#272727" points="60.293,32.203 52,53.797 71.547,58.66 	"/>
	<polygon fill="#F0F0F0" points="98.414,148.746 101.008,149.191 101.035,138 	"/>
	<polygon fill="#2E2E2E" points="64.035,14 84.176,23.418 90.457,10.984 	"/>
	<polygon fill="#787878" points="72.035,234 64.035,250 75.035,257 	"/>
	<polygon fill="#6E6E6E" points="82.902,158.211 72.57,170.859 84.762,168.758 	"/>
	<polygon fill="#9A9A9A" points="64.035,250 55.035,262 75.035,257 	"/>
	<polygon fill="#3C3C3C" points="80.035,141 82.035,145 92.035,129 	"/>
	<polygon fill="#383838" points="65.898,25.051 60.293,32.203 79.683,30.344 	"/>
	<polygon fill="#161616" points="93.035,220 93.398,231.598 106.035,229 	"/>
	<polygon fill="#ECECEC" points="62.035,167 58.035,175 72.57,170.859 	"/>
	<polygon fill="#A3A3A3" points="58.035,175 64.035,191 72.57,170.859 	"/>
	<polygon fill="#EAEAEA" points="60.035,208 71.035,214 73.683,205.195 	"/>
	<polygon fill="#B0B0B0" points="71.035,155 62.035,167 72.57,170.859 	"/>
	<polygon fill="#464646" points="69.035,141 57.613,148.355 73.035,147 	"/>
	<polygon fill="#696969" points="57.613,148.355 71.035,155 73.035,147 	"/>
	<polygon fill="#E6E6E6" points="64.035,191 60.035,208 73.683,205.195 	"/>
	<polygon fill="#1F1F1F" points="66.035,121 70.39,124.145 76.765,118.902 	"/>
	<polygon fill="#2B2B2B" points="70.555,110.645 66.035,121 76.765,118.902 	"/>
	<polygon fill="#474747" points="82.035,145 77.035,150 82.902,158.211 	"/>
	<polygon fill="#8B8B8B" points="72.57,170.859 64.035,191 83.312,181.461 	"/>
	<polygon fill="#E9E9E9" points="104.477,186.648 107.293,200.582 113.555,192.555 	"/>
	<polygon fill="#3B3B3B" points="80.035,141 73.035,147 82.035,145 	"/>
	<polygon fill="#777777" points="73.035,147 71.035,155 77.035,150 	"/>
	<polygon fill="#2A2A2A" points="77.035,150 71.035,155 82.902,158.211 	"/>
	<polygon fill="#FDFDFD" points="73.683,205.195 71.035,214 80.035,206 	"/>
	<polygon fill="#AAAAAA" points="92.855,190.141 88.832,200.152 97.035,199 	"/>
	<polygon fill="#424242" points="73.035,147 77.035,150 82.035,145 	"/>
	<polygon fill="#3F3F3F" points="79.683,30.344 60.293,32.203 84.98,50.043 	"/>
	<polygon fill="#2B2B2B" points="60.293,32.203 71.547,58.66 84.98,50.043 	"/>
	<polygon fill="#353535" points="65.898,25.051 79.683,30.344 84.176,23.418 	"/>
	<polygon fill="#DEDEDE" points="71.035,155 72.57,170.859 82.902,158.211 	"/>
	<polygon fill="#1F1F1F" points="90.457,10.984 84.176,23.418 98.195,18.809 	"/>
	<polygon fill="#BFBFBF" points="84.762,168.758 72.57,170.859 85.242,170.383 	"/>
	<polygon fill="#DDDDDD" points="73.683,205.195 80.035,206 83.035,196 	"/>
	<polygon fill="#ECECEC" points="64.035,191 73.683,205.195 83.035,196 	"/>
	<polygon fill="#F3F3F3" points="105.035,204 102.973,208.652 107.035,210 	"/>
	<polygon fill="#464646" points="64.035,14 65.898,25.051 84.176,23.418 	"/>
	<polygon fill="#5C5C5C" points="85.242,170.383 89.383,180.836 93.59,178.336 	"/>
	<polygon fill="#4B4B4B" points="76.765,118.902 70.39,124.145 85.035,127 	"/>
	<polygon fill="#343434" points="70.39,124.145 79.035,134 85.035,127 	"/>
	<polygon fill="#797979" points="72.035,234 75.035,257 87.035,241 	"/>
	<polygon fill="#909090" points="72.57,170.859 83.312,181.461 85.242,170.383 	"/>
	<polygon fill="#DADADA" points="89.383,180.836 92.855,190.141 93.59,178.336 	"/>
	<polygon fill="#D3D3D3" points="92.855,190.141 98.73,191.734 104.477,186.648 	"/>
	<polygon fill="#030303" points="206.859,253.977 207.875,256.848 234.035,272 	"/>
	<polygon fill="#DEDEDE" points="97.035,199 102.973,208.652 105.035,204 	"/>
	<polygon fill="#353535" points="84.98,50.043 71.547,58.66 87.035,75 	"/>
	<polygon fill="#9F9F9F" points="83.035,196 80.035,206 88.832,200.152 	"/>
	<polygon fill="#696969" points="85.242,170.383 83.312,181.461 89.383,180.836 	"/>
	<polygon fill="#FAFAFA" points="82.902,158.211 84.762,168.758 90.035,155 	"/>
	<polygon fill="#161616" points="93.035,220 72.035,234 93.398,231.598 	"/>
	<polygon fill="#F1F1F1" points="82.035,145 82.902,158.211 90.035,155 	"/>
	<polygon fill="#898989" points="93.59,178.336 92.855,190.141 104.477,186.648 	"/>
	<polygon fill="#B9B9B9" points="87.035,250 75.035,257 92.535,272 	"/>
	<polygon fill="#E0E0E0" points="92.855,190.141 97.035,199 98.73,191.734 	"/>
	<polygon fill="#2B2B2B" points="79.035,134 80.035,141 92.035,129 	"/>
	<polygon fill="#404040" points="85.035,127 79.035,134 92.035,129 	"/>
	<polygon fill="#8F8F8F" points="55.035,262 0.035,264 92.535,272 	"/>
	<polygon fill="#C8C8C8" points="75.035,257 55.035,262 92.535,272 	"/>
	<polygon fill="#FAFAFA" points="82.035,145 90.035,155 93.035,151 	"/>
	<polygon fill="#A0A0A0" points="83.035,196 88.832,200.152 92.855,190.141 	"/>
	<polygon fill="#E5E5E5" points="83.312,181.461 83.035,196 92.855,190.141 	"/>
	<polygon fill="#C0C0C0" points="89.383,180.836 83.312,181.461 92.855,190.141 	"/>
	<polygon fill="#FAFAFA" points="88.832,200.152 80.035,206 93.035,220 	"/>
	<polygon fill="#F2F2F2" points="80.035,206 71.035,214 93.035,220 	"/>
	<polygon fill="#424242" points="71.035,214 72.035,234 93.035,220 	"/>
	<polygon fill="#464646" points="72.035,234 87.035,241 93.398,231.598 	"/>
	<polygon fill="#E6E6E6" points="107.293,200.582 108.043,203.332 113.555,192.555 	"/>
	<polygon fill="#8F8F8F" points="85.035,127 91.035,125 94.035,117 	"/>
	<polygon fill="#393939" points="76.765,118.902 85.035,127 94.035,117 	"/>
	<polygon fill="#3B3B3B" points="147.047,131.418 151.035,139 152.059,132.637 	"/>
	<polygon fill="#424242" points="98.195,18.809 84.176,23.418 98.648,32.66 	"/>
	<polygon fill="#838383" points="94.035,117 91.035,125 101.035,121 	"/>
	<polygon fill="#626262" points="84.176,23.418 79.683,30.344 98.648,32.66 	"/>
	<polygon fill="#FFFFFF" points="101.008,149.191 93.035,151 102.219,166.902 	"/>
	<polygon fill="#404040" points="79.683,30.344 84.98,50.043 98.648,32.66 	"/>
	<polygon fill="#737373" points="91.035,125 92.035,129 101.035,121 	"/>
	<polygon fill="#5C5C5C" points="84.98,50.043 87.035,75 103.703,70.004 	"/>
	<polygon fill="#434343" points="111.035,213 108.035,220 112.406,219.781 	"/>
	<polygon fill="#FDFDFD" points="93.035,151 90.035,155 102.219,166.902 	"/>
	<polygon fill="#1F1F1F" points="117.336,216.727 112.406,219.781 123.395,224.996 	"/>
	<polygon fill="#494949" points="151.035,125 147.047,131.418 152.059,132.637 	"/>
	<polygon fill="#FDFDFD" points="98.414,148.746 93.035,151 101.008,149.191 	"/>
	<polygon fill="#DBDBDB" points="118.52,183.125 130.031,180.773 130.039,178.426 	"/>
	<polygon fill="#B7B7B7" points="87.035,250 114.035,259 115.035,241 	"/>
	<polygon fill="#FEFEFE" points="82.035,145 93.035,151 101.035,138 	"/>
	<polygon fill="#FDFDFD" points="93.035,151 98.414,148.746 101.035,138 	"/>
	<polygon fill="#FDFDFD" points="92.035,129 82.035,145 101.035,138 	"/>
	<polygon fill="#242424" points="92.035,129 101.035,138 101.035,121 	"/>
	<polygon fill="#F7F7F7" points="90.035,155 84.762,168.758 102.219,166.902 	"/>
	<polygon fill="#626262" points="84.762,168.758 85.242,170.383 102.219,166.902 	"/>
	<polygon fill="#5C5C5C" points="85.242,170.383 93.59,178.336 102.219,166.902 	"/>
	<polygon fill="#989898" points="123.395,224.996 106.035,229 124.035,235 	"/>
	<polygon fill="#F7F7F7" points="88.832,200.152 93.035,220 102.973,208.652 	"/>
	<polygon fill="#C7C7C7" points="97.035,199 88.832,200.152 102.973,208.652 	"/>
	<polygon fill="#DADADA" points="115.035,241 114.035,259 119.035,257 	"/>
	<polygon fill="#181818" points="105.035,8 98.195,18.809 114.316,28.965 	"/>
	<polygon fill="#252525" points="96.035,0 90.457,10.984 105.035,8 	"/>
	<polygon fill="#232323" points="90.457,10.984 98.195,18.809 105.035,8 	"/>
	<polygon fill="#3C3C3C" points="118.074,61.938 134.043,54.805 136.145,49.484 	"/>
	<polygon fill="#929292" points="112.207,169.188 117.863,182.77 118.52,183.125 	"/>
	<polygon fill="#686868" points="98.195,18.809 98.648,32.66 114.316,28.965 	"/>
	<polygon fill="#DDDDDD" points="94.035,117 101.035,121 107.035,114 	"/>
	<polygon fill="#CFCFCF" points="98.73,191.734 97.035,199 107.293,200.582 	"/>
	<polygon fill="#242424" points="101.008,149.191 110.035,155 111.121,151.617 	"/>
	<polygon fill="#353535" points="108.035,220 106.035,229 112.406,219.781 	"/>
	<polygon fill="#D0D0D0" points="93.59,178.336 104.477,186.648 107.77,180.242 	"/>
	<polygon fill="#D9D9D9" points="104.477,186.648 98.73,191.734 107.293,200.582 	"/>
	<polygon fill="#5B5B5B" points="102.219,166.902 93.59,178.336 107.77,180.242 	"/>
	<polygon fill="#D0D0D0" points="87.035,250 92.535,272 114.035,259 	"/>
	<polygon fill="#E8E8E8" points="107.293,200.582 105.035,204 108.043,203.332 	"/>
	<polygon fill="#EBEBEB" points="107.035,210 102.973,208.652 108.035,220 	"/>
	<polygon fill="#A6A6A6" points="102.973,208.652 93.035,220 108.035,220 	"/>
	<polygon fill="#ECECEC" points="105.035,204 107.035,210 108.043,203.332 	"/>
	<polygon fill="#E4E4E4" points="101.008,149.191 102.219,166.902 110.035,155 	"/>
	<polygon fill="#F3F3F3" points="108.043,203.332 107.035,210 111.035,213 	"/>
	<polygon fill="#3C3C3C" points="101.035,121 101.035,138 110.863,120.723 	"/>
	<polygon fill="#626262" points="107.035,114 101.035,121 110.863,120.723 	"/>
	<polygon fill="#7C7C7C" points="117.035,147 125.402,162.73 127.035,150 	"/>
	<polygon fill="#B3B3B3" points="107.035,210 108.035,220 111.035,213 	"/>
	<polygon fill="#636363" points="101.035,138 101.008,149.191 111.121,151.617 	"/>
	<polygon fill="#8A8A8A" points="87.035,241 87.035,250 115.035,241 	"/>
	<polygon fill="#606060" points="106.035,229 93.398,231.598 115.035,241 	"/>
	<polygon fill="#A9A9A9" points="102.219,166.902 107.77,180.242 112.207,169.188 	"/>
	<polygon fill="#DDDDDD" points="110.035,155 102.219,166.902 112.207,169.188 	"/>
	<polygon fill="#676767" points="93.398,231.598 87.035,241 115.035,241 	"/>
	<polygon fill="#DADADA" points="115.035,241 119.035,257 123.035,252 	"/>
	<polygon fill="#C0C0C0" points="123.035,252 119.035,257 153.035,266 	"/>
	<polygon fill="#373737" points="149.918,112.734 146.051,125.926 151.035,125 	"/>
	<polygon fill="#C7C7C7" points="106.035,229 115.035,241 124.035,235 	"/>
	<polygon fill="#202020" points="114.316,28.965 98.648,32.66 118.074,61.938 	"/>
	<polygon fill="#343434" points="122.035,23 114.316,28.965 125.035,29 	"/>
	<polygon fill="#272727" points="101.035,138 111.121,151.617 117.035,147 	"/>
	<polygon fill="#282828" points="107.77,180.242 113.555,192.555 117.863,182.77 	"/>
	<polygon fill="#7C7C7C" points="112.207,169.188 107.77,180.242 117.863,182.77 	"/>
	<polygon fill="#D3D3D3" points="115.035,241 123.035,242 124.035,235 	"/>
	<polygon fill="#282828" points="101.035,138 117.035,147 119.574,131.676 	"/>
	<polygon fill="#626262" points="111.035,213 112.406,219.781 117.336,216.727 	"/>
	<polygon fill="#272727" points="98.648,32.66 84.98,50.043 118.074,61.938 	"/>
	<polygon fill="#383838" points="84.98,50.043 103.703,70.004 118.074,61.938 	"/>
	<polygon fill="#D2D2D2" points="133.645,228.297 124.035,235 137.035,237 	"/>
	<polygon fill="#3D3D3D" points="110.863,120.723 101.035,138 119.574,131.676 	"/>
	<polygon fill="#CECECE" points="115.035,241 123.035,252 123.035,242 	"/>
	<polygon fill="#646464" points="117.863,182.77 113.555,192.555 118.52,183.125 	"/>
	<polygon fill="#151515" points="114.316,28.965 118.074,61.938 125.035,29 	"/>
	<polygon fill="#363636" points="132.035,114 146.051,125.926 149.918,112.734 	"/>
	<polygon fill="#DEDEDE" points="159.141,147.949 159.172,161.59 159.566,162.344 	"/>
	<polygon fill="#1B1B1B" points="125.035,29 118.074,61.938 136.145,49.484 	"/>
	<polygon fill="#A3A3A3" points="108.043,203.332 111.035,213 120.168,214.301 	"/>
	<polygon fill="#4B4B4B" points="111.035,213 117.336,216.727 120.168,214.301 	"/>
	<polygon fill="#464646" points="105.035,8 114.316,28.965 122.035,23 	"/>
	<polygon fill="#626262" points="137.035,237 153.176,258.93 154.812,254.867 	"/>
	<polygon fill="#383838" points="129.035,203 136.035,207 139.035,203 	"/>
	<polygon fill="#242424" points="112.406,219.781 106.035,229 123.395,224.996 	"/>
	<polygon fill="#4D4D4D" points="120.168,214.301 127.035,213 129.035,203 	"/>
	<polygon fill="#181818" points="120.168,214.301 117.336,216.727 123.395,224.996 	"/>
	<polygon fill="#272727" points="120.168,214.301 123.395,224.996 127.035,213 	"/>
	<polygon fill="#EBEBEB" points="130.031,180.773 118.52,183.125 133.035,187 	"/>
	<polygon fill="#878787" points="117.035,147 111.121,151.617 125.402,162.73 	"/>
	<polygon fill="#929292" points="110.035,155 112.207,169.188 125.402,162.73 	"/>
	<polygon fill="#8F8F8F" points="111.121,151.617 110.035,155 125.402,162.73 	"/>
	<polygon fill="#CFCFCF" points="124.035,235 123.035,242 137.035,237 	"/>
	<polygon fill="#353535" points="119.574,131.676 117.035,147 127.035,141 	"/>
	<polygon fill="#BCBCBC" points="125.402,162.73 112.207,169.188 130.039,178.426 	"/>
	<polygon fill="#BFBFBF" points="112.207,169.188 118.52,183.125 130.039,178.426 	"/>
	<polygon fill="#494949" points="117.035,147 127.035,150 127.035,141 	"/>
	<polygon fill="#7C7C7C" points="107.035,114 110.863,120.723 132.035,114 	"/>
	<polygon fill="#C9C9C9" points="123.035,242 123.035,252 137.035,237 	"/>
	<polygon fill="#EEEEEE" points="113.555,192.555 108.043,203.332 129.035,203 	"/>
	<polygon fill="#B7B7B7" points="108.043,203.332 120.168,214.301 129.035,203 	"/>
	<polygon fill="#C7C7C7" points="123.395,224.996 124.035,235 133.645,228.297 	"/>
	<polygon fill="#1D1D1D" points="110.863,120.723 119.574,131.676 132.035,114 	"/>
	<polygon fill="#878787" points="134.988,168.648 153.109,181.074 156.121,171.656 	"/>
	<polygon fill="#575757" points="146.051,125.926 143.043,132.309 147.047,131.418 	"/>
	<polygon fill="#8C8C8C" points="118.52,183.125 113.555,192.555 133.035,187 	"/>
	<polygon fill="#C7C7C7" points="113.555,192.555 129.035,203 133.035,187 	"/>
	<polygon fill="#B4B4B4" points="134.043,54.805 118.074,61.938 137.035,68 	"/>
	<polygon fill="#1D1D1D" points="122.035,23 125.035,29 134.035,29 	"/>
	<polygon fill="#3F3F3F" points="129.035,203 127.035,213 136.035,207 	"/>
	<polygon fill="#A2A2A2" points="144.035,193 139.035,203 147.32,207.938 	"/>
	<polygon fill="#151515" points="134.035,29 125.035,29 136.145,49.484 	"/>
	<polygon fill="#B0B0B0" points="133.035,187 129.035,203 139.035,203 	"/>
	<polygon fill="#E0E0E0" points="125.402,162.73 130.039,178.426 134.988,168.648 	"/>
	<polygon fill="#141414" points="134.043,54.805 134.922,54.41 136.145,49.484 	"/>
	<polygon fill="#5C5C5C" points="146.051,125.926 147.047,131.418 151.035,125 	"/>
	<polygon fill="#6C6C6C" points="136.035,207 127.035,213 137.5,219.273 	"/>
	<polygon fill="#C8C8C8" points="123.395,224.996 133.645,228.297 137.5,219.273 	"/>
	<polygon fill="#848484" points="127.035,213 123.395,224.996 137.5,219.273 	"/>
	<polygon fill="#4A4A4A" points="134.922,54.41 134.043,54.805 137.035,68 	"/>
	<polygon fill="#525252" points="149.465,238.68 137.035,237 154.812,254.867 	"/>
	<polygon fill="#F1F1F1" points="149.465,238.68 154.812,254.867 155.953,251.293 	"/>
	<polygon fill="#8E8E8E" points="141.035,184 144.035,193 145.035,190 	"/>
	<polygon fill="#5D5D5D" points="139.035,203 136.035,207 141.051,208.133 	"/>
	<polygon fill="#8E8E8E" points="136.035,207 137.5,219.273 141.051,208.133 	"/>
	<polygon fill="#DFDFDF" points="125.402,162.73 134.988,168.648 140.035,161 	"/>
	<polygon fill="#939393" points="127.035,150 125.402,162.73 140.035,161 	"/>
	<polygon fill="#E8E8E8" points="130.039,178.426 130.031,180.773 141.035,184 	"/>
	<polygon fill="#C3C3C3" points="130.031,180.773 133.035,187 141.035,184 	"/>
	<polygon fill="#DDDDDD" points="134.988,168.648 130.039,178.426 141.035,184 	"/>
	<polygon fill="#434343" points="119.574,131.676 127.035,141 143.043,132.309 	"/>
	<polygon fill="#343434" points="132.035,114 119.574,131.676 143.043,132.309 	"/>
	<polygon fill="#9E9E9E" points="141.035,184 133.035,187 144.035,193 	"/>
	<polygon fill="#8F8F8F" points="133.035,187 139.035,203 144.035,193 	"/>
	<polygon fill="#9A9A9A" points="139.035,203 141.051,208.133 147.32,207.938 	"/>
	<polygon fill="#9E9E9E" points="141.051,208.133 137.5,219.273 147.32,207.938 	"/>
	<polygon fill="#BBBBBB" points="119.035,257 114.035,259 153.035,266 	"/>
	<polygon fill="#464646" points="132.035,114 143.043,132.309 146.051,125.926 	"/>
	<polygon fill="#080808" points="134.035,29 136.145,49.484 148.035,40 	"/>
	<polygon fill="#363636" points="145.035,190 144.035,193 147.32,207.938 	"/>
	<polygon fill="#F4F4F4" points="159.172,161.59 156.121,171.656 159.566,162.344 	"/>
	<polygon fill="#C4C4C4" points="164.508,128.73 165.305,138.57 165.676,128.918 	"/>
	<polygon fill="#A2A2A2" points="133.645,228.297 137.035,237 149.465,238.68 	"/>
	<polygon fill="#A0A0A0" points="137.5,219.273 133.645,228.297 149.465,238.68 	"/>
	<polygon fill="#B2B2B2" points="140.035,161 134.988,168.648 156.121,171.656 	"/>
	<polygon fill="#8D8D8D" points="127.035,150 140.035,161 151.035,139 	"/>
	<polygon fill="#585858" points="127.035,141 127.035,150 151.035,139 	"/>
	<polygon fill="#545454" points="143.043,132.309 127.035,141 151.035,139 	"/>
	<polygon fill="#C9C9C9" points="114.035,259 92.535,272 153.035,266 	"/>
	<polygon fill="#4A4A4A" points="147.047,131.418 143.043,132.309 151.035,139 	"/>
	<polygon fill="#878787" points="155.582,150.32 153.691,150.137 155.941,152.676 	"/>
	<polygon fill="#B4B4B4" points="153.691,150.137 140.035,161 155.941,152.676 	"/>
	<polygon fill="#5C5C5C" points="152.059,132.637 151.035,139 155.211,133.426 	"/>
	<polygon fill="#696969" points="151.035,125 155.211,133.426 156.977,134.117 	"/>
	<polygon fill="#BFBFBF" points="134.988,168.648 141.035,184 153.109,181.074 	"/>
	<polygon fill="#777777" points="141.035,184 145.035,190 153.109,181.074 	"/>
	<polygon fill="#505050" points="151.035,139 140.035,161 153.691,150.137 	"/>
	<polygon fill="#B9B9B9" points="137.035,237 123.035,252 153.176,258.93 	"/>
	<polygon fill="#B2B2B2" points="123.035,252 153.035,266 153.176,258.93 	"/>
	<polygon fill="#E2E2E2" points="207.875,256.848 203.035,268 214.035,266 	"/>
	<polygon fill="#9B9B9B" points="155.582,150.32 155.941,152.676 159.141,147.949 	"/>
	<polygon fill="#464646" points="151.035,125 152.059,132.637 155.211,133.426 	"/>
	<polygon fill="#040404" points="163.035,232 157.477,239.754 167.035,236 	"/>
	<polygon fill="#E4E4E4" points="137.035,68 138.035,84 155.723,76.57 	"/>
	<polygon fill="#525252" points="137.035,68 155.723,76.57 159.035,57 	"/>
	<polygon fill="#030303" points="172.035,90 161.973,95.328 175.504,101.68 	"/>
	<polygon fill="#343434" points="138.035,84 160.035,103 161.973,95.328 	"/>
	<polygon fill="#505050" points="155.211,133.426 151.035,139 156.977,134.117 	"/>
	<polygon fill="#2D2D2D" points="134.922,54.41 137.035,68 159.035,57 	"/>
	<polygon fill="#161616" points="148.035,40 136.145,49.484 159.035,57 	"/>
	<polygon fill="#151515" points="149.918,112.734 165.441,116.621 166.035,111 	"/>
	<polygon fill="#040404" points="147.32,207.938 137.5,219.273 159.016,228.066 	"/>
	<polygon fill="#222222" points="137.5,219.273 149.465,238.68 159.016,228.066 	"/>
	<polygon fill="#040404" points="165.441,116.621 164.328,121.078 174.156,122.754 	"/>
	<polygon fill="#141414" points="136.145,49.484 134.922,54.41 159.035,57 	"/>
	<polygon fill="#B5B5B5" points="156.977,134.117 151.035,139 159.141,147.949 	"/>
	<polygon fill="#929292" points="153.691,150.137 155.582,150.32 159.141,147.949 	"/>
	<polygon fill="#1C1C1C" points="160.035,103 149.918,112.734 166.035,111 	"/>
	<polygon fill="#FCFCFC" points="149.465,238.68 157.477,239.754 159.676,230.859 	"/>
	<polygon fill="#ACACAC" points="151.035,139 153.691,150.137 159.141,147.949 	"/>
	<polygon fill="#7F7F7F" points="155.941,152.676 140.035,161 159.172,161.59 	"/>
	<polygon fill="#717171" points="140.035,161 156.121,171.656 159.172,161.59 	"/>
	<polygon fill="#5D5D5D" points="159.141,147.949 155.941,152.676 159.172,161.59 	"/>
	<polygon fill="#575757" points="155.723,76.57 138.035,84 161.973,95.328 	"/>
	<polygon fill="#030303" points="159.016,228.066 149.465,238.68 159.676,230.859 	"/>
	<polygon fill="#030303" points="159.016,228.066 159.676,230.859 163.035,232 	"/>
	<polygon fill="#030303" points="172.035,66 155.723,76.57 172.035,90 	"/>
	<polygon fill="#919191" points="138.035,84 149.918,112.734 160.035,103 	"/>
	<polygon fill="#040404" points="159.676,230.859 157.477,239.754 163.035,232 	"/>
	<polygon fill="#CDCDCD" points="164.328,121.078 164.508,128.73 165.676,128.918 	"/>
	<polygon fill="#878787" points="149.918,112.734 151.035,125 164.328,121.078 	"/>
	<polygon fill="#171717" points="155.723,76.57 161.973,95.328 172.035,90 	"/>
	<polygon fill="#CDCDCD" points="164.508,128.73 156.977,134.117 165.305,138.57 	"/>
	<polygon fill="#5C5C5C" points="164.328,121.078 151.035,125 164.508,128.73 	"/>
	<polygon fill="#636363" points="151.035,125 156.977,134.117 164.508,128.73 	"/>
	<polygon fill="#F5F5F5" points="156.977,134.117 159.141,147.949 165.305,138.57 	"/>
	<polygon fill="#EBEBEB" points="159.566,162.344 156.121,171.656 167.035,167 	"/>
	<polygon fill="#282828" points="149.918,112.734 164.328,121.078 165.441,116.621 	"/>
	<polygon fill="#030303" points="166.035,111 165.441,116.621 170.5,107.488 	"/>
	<polygon fill="#C1C1C1" points="165.676,128.918 172.125,132.434 174.156,122.754 	"/>
	<polygon fill="#5C5C5C" points="164.328,121.078 165.676,128.918 174.156,122.754 	"/>
	<polygon fill="#030303" points="170.5,107.488 165.441,116.621 174.156,122.754 	"/>
	<polygon fill="#0A0A0A" points="161.973,95.328 160.035,103 170.5,107.488 	"/>
	<polygon fill="#030303" points="160.035,103 166.035,111 170.5,107.488 	"/>
	<polygon fill="#030303" points="161.973,95.328 170.5,107.488 175.504,101.68 	"/>
	<polygon fill="#030303" points="159.035,57 155.723,76.57 172.035,66 	"/>
	<polygon fill="#8A8A8A" points="165.676,128.918 165.305,138.57 172.125,132.434 	"/>
	<polygon fill="#D3D3D3" points="159.141,147.949 172.168,157.996 173.668,152.402 	"/>
	<polygon fill="#F5F5F5" points="165.305,138.57 159.141,147.949 173.668,152.402 	"/>
	<polygon fill="#F4F4F4" points="159.141,147.949 159.566,162.344 172.168,157.996 	"/>
	<polygon fill="#C2C2C2" points="159.566,162.344 167.035,167 172.168,157.996 	"/>
	<polygon fill="#E4E4E4" points="165.305,138.57 173.668,152.402 176.039,143.297 	"/>
	<polygon fill="#030303" points="170.5,107.488 174.156,122.754 175.504,101.68 	"/>
	<polygon fill="#D6D6D6" points="172.125,132.434 165.305,138.57 176.039,143.297 	"/>
	<polygon fill="#030303" points="206.859,253.977 200.035,253 207.875,256.848 	"/>
	<g>
		<polygon fill="#F7F7F7" points="57.703,109.004 70.555,110.645 70.637,105.199 		"/>
		<polygon fill="#FDFDFD" points="64.941,68.234 63.625,69.762 73.035,74 		"/>
		<polygon fill="#FBFBFB" points="69.715,100.941 57.703,109.004 70.637,105.199 		"/>
		<polygon fill="#F8F8F8" points="48.035,87 57.703,109.004 61.035,88 		"/>
		<polygon fill="#DCDCDC" points="34.035,95 34.355,106.484 39.523,104.094 		"/>
		<polygon fill="#D2D2D2" points="52,53.797 33.035,61 52.035,60 		"/>
		<polygon fill="#F1F1F1" points="45.035,72 36.035,82 48.035,87 		"/>
		<polygon fill="#F6F6F6" points="33.035,61 36.035,82 45.035,72 		"/>
		<polygon fill="#F7F7F7" points="33.035,61 45.035,72 52.035,60 		"/>
		<polygon fill="#E4E4E4" points="36.035,82 34.035,95 48.035,87 		"/>
		<polygon fill="#E7E7E7" points="34.035,95 39.523,104.094 48.035,87 		"/>
		<polygon fill="#F5F5F5" points="48.035,87 39.523,104.094 57.703,109.004 		"/>
		<polygon fill="#F8F8F8" points="48.035,87 61.035,88 63.625,69.762 		"/>
		<polygon fill="#F8F8F8" points="52.035,60 45.035,72 63.625,69.762 		"/>
		<polygon fill="#F6F6F6" points="45.035,72 48.035,87 63.625,69.762 		"/>
		<polygon fill="#F9F9F9" points="52.035,60 63.625,69.762 64.941,68.234 		"/>
		<polygon fill="#FDFDFD" points="61.035,88 72.035,90 73.035,74 		"/>
		<polygon fill="#DCDCDC" points="52.035,60 64.941,68.234 71.547,58.66 		"/>
		<polygon fill="#FDFDFD" points="63.625,69.762 61.035,88 73.035,74 		"/>
		<polygon fill="#FEFEFE" points="61.035,88 69.715,100.941 72.035,90 		"/>
		<polygon fill="#FAFAFA" points="61.035,88 57.703,109.004 69.715,100.941 		"/>
		<polygon fill="#7F7F7F" points="52,53.797 52.035,60 71.547,58.66 		"/>
		<polygon fill="#F8F8F8" points="71.547,58.66 64.941,68.234 73.035,74 		"/>
		<polygon fill="#FEFEFE" points="88.035,91 70.637,105.199 95.145,107.711 		"/>
		<polygon fill="#ECECEC" points="70.637,105.199 70.555,110.645 76.765,118.902 		"/>
		<polygon fill="#FDFDFD" points="87.035,75 72.035,90 88.035,91 		"/>
		<polygon fill="#F9F9F9" points="107.035,102 95.145,107.711 107.035,114 		"/>
		<polygon fill="#FDFDFD" points="73.035,74 72.035,90 87.035,75 		"/>
		<polygon fill="#F8F8F8" points="71.547,58.66 73.035,74 87.035,75 		"/>
		<polygon fill="#FEFEFE" points="69.715,100.941 70.637,105.199 88.035,91 		"/>
		<polygon fill="#FEFEFE" points="72.035,90 69.715,100.941 88.035,91 		"/>
		<polygon fill="#D8D8D8" points="76.765,118.902 94.035,117 95.145,107.711 		"/>
		<polygon fill="#F2F2F2" points="70.637,105.199 76.765,118.902 95.145,107.711 		"/>
		<polygon fill="#FDFDFD" points="88.035,91 95.145,107.711 101.035,89 		"/>
		<polygon fill="#FEFEFE" points="87.035,75 88.035,91 101.035,89 		"/>
		<polygon fill="#FDFDFD" points="87.035,75 101.035,89 103.703,70.004 		"/>
		<polygon fill="#FDFDFD" points="101.035,89 95.145,107.711 107.035,102 		"/>
		<polygon fill="#EDEDED" points="95.145,107.711 94.035,117 107.035,114 		"/>
		<polygon fill="#FDFDFD" points="101.035,89 107.035,102 111.035,85 		"/>
		<polygon fill="#FDFDFD" points="103.703,70.004 101.035,89 111.035,85 		"/>
		<polygon fill="#FDFDFD" points="118.074,61.938 103.703,70.004 119.035,83 		"/>
		<polygon fill="#FCFCFC" points="103.703,70.004 111.035,85 119.035,83 		"/>
		<polygon fill="#F8F8F8" points="119.035,83 124.695,84.66 127.035,74 		"/>
		<polygon fill="#E8E8E8" points="137.035,68 127.035,74 138.035,84 		"/>
		<polygon fill="#F8F8F8" points="118.074,61.938 119.035,83 127.035,74 		"/>
		<polygon fill="#F4F4F4" points="127.035,97 107.035,114 132.035,114 		"/>
		<polygon fill="#FBFBFB" points="107.035,102 107.035,114 127.035,97 		"/>
		<polygon fill="#F6F6F6" points="124.695,84.66 119.035,83 127.035,97 		"/>
		<polygon fill="#FBFBFB" points="119.035,83 111.035,85 127.035,97 		"/>
		<polygon fill="#FDFDFD" points="111.035,85 107.035,102 127.035,97 		"/>
		<polygon fill="#F2F2F2" points="118.074,61.938 127.035,74 137.035,68 		"/>
		<polygon fill="#EDEDED" points="127.035,74 124.695,84.66 138.035,84 		"/>
		<polygon fill="#F3F3F3" points="124.695,84.66 127.035,97 138.035,84 		"/>
		<polygon fill="#FBFBFB" points="172.035,259 190.035,262 190.484,244.711 		"/>
		<polygon fill="#ECECEC" points="138.035,84 127.035,97 149.918,112.734 		"/>
		<polygon fill="#F0F0F0" points="127.035,97 132.035,114 149.918,112.734 		"/>
		<polygon fill="#FDFDFD" points="157.477,239.754 155.953,251.293 159.914,242.555 		"/>
		<polygon fill="#FDFDFD" points="155.953,251.293 154.812,254.867 170.035,252 		"/>
		<polygon fill="#F3F3F3" points="149.465,238.68 155.953,251.293 157.477,239.754 		"/>
		<polygon fill="#FEFEFE" points="153.176,258.93 153.035,266 172.035,259 		"/>
		<polygon fill="#FDFDFD" points="159.914,242.555 155.953,251.293 170.035,252 		"/>
		<polygon fill="#F8F8F8" points="157.477,239.754 159.914,242.555 167.035,236 		"/>
		<polygon fill="#FDFDFD" points="170.035,252 154.812,254.867 172.035,259 		"/>
		<polygon fill="#FDFDFD" points="154.812,254.867 153.176,258.93 172.035,259 		"/>
		<polygon fill="#FBFBFB" points="170.035,252 172.035,259 190.484,244.711 		"/>
		<polygon fill="#F7F7F7" points="167.035,236 159.914,242.555 175.035,242 		"/>
		<polygon fill="#F3F3F3" points="159.914,242.555 170.035,252 175.035,242 		"/>
		<polygon fill="#E7E7E7" points="175.035,242 170.035,252 190.484,244.711 		"/>
		<polygon fill="#FDFDFD" points="172.035,259 153.035,266 190.035,262 		"/>
		<polygon fill="#FDFDFD" points="190.484,244.711 190.035,262 194.523,258.402 		"/>
		<polygon fill="#030303" points="190.484,244.711 194.523,258.402 200.035,253 		"/>
		<polygon fill="#FDFDFD" points="190.035,262 153.035,266 203.035,268 		"/>
		<polygon fill="#F8F8F8" points="194.523,258.402 190.035,262 203.035,268 		"/>
		<polygon fill="#F8F8F8" points="194.523,258.402 203.035,268 207.875,256.848 		"/>
		<polygon fill="#1C1C1C" points="200.035,253 194.523,258.402 207.875,256.848 		"/>
	</g>
</g>
</svg>
